<svg width="65" height="66" viewBox="0 0 65 66" fill="none" xmlns="http://www.w3.org/2000/svg">
<path fill-rule="evenodd" clip-rule="evenodd" d="M32.5 65.4158C50.44 65.4158 65 50.7626 65 32.7079C65 14.6531 50.44 0 32.5 0C14.56 0 0 14.6531 0 32.7079C0 50.7626 14.56 65.4158 32.5 65.4158ZM50.3749 19.6246C40.9499 19.6246 32.6949 14.5222 28.1449 6.934C29.5424 6.70504 31.0049 6.5415 32.4999 6.5415C41.9249 6.5415 50.1799 11.6439 54.7299 19.2321C53.3324 19.4611 51.8699 19.6246 50.3749 19.6246ZM7.86494 24.4328C13.4224 21.2601 17.7124 16.0923 19.7599 9.91046C14.2024 13.0831 9.91245 18.251 7.86494 24.4328ZM57.4275 25.3813C58.11 27.7035 58.5 30.1566 58.5 32.7078C58.5 47.132 46.8325 58.8741 32.5 58.8741C18.1675 58.8741 6.50003 47.132 6.50003 32.7078C6.50003 32.6521 6.50381 32.5963 6.5075 32.5418C6.51464 32.4365 6.52144 32.3361 6.50003 32.2499C14.95 29.0446 21.7425 22.4703 25.155 14.097C31.135 21.4563 40.2025 26.1663 50.375 26.1663C52.8125 26.1663 55.1525 25.8719 57.4275 25.3813Z" fill="white"/>
<path fill-rule="evenodd" clip-rule="evenodd" d="M18 30.3867H6V28.3867H18V30.3867Z" fill="white"/>
<path fill-rule="evenodd" clip-rule="evenodd" d="M60 30.3867H48V28.3867H60V30.3867Z" fill="white"/>
<path fill-rule="evenodd" clip-rule="evenodd" d="M38 30.3867H28V29.3867H38V30.3867Z" fill="white"/>
<path fill-rule="evenodd" clip-rule="evenodd" d="M27 29.3867H20V32.3867H27V29.3867ZM18 27.3867V34.3867H29V27.3867H18Z" fill="white"/>
<path fill-rule="evenodd" clip-rule="evenodd" d="M47 29.3867H40V32.3867H47V29.3867ZM38 27.3867V34.3867H49V27.3867H38Z" fill="white"/>
</svg>
