<svg width="46" height="45" viewBox="0 0 46 45" fill="none" xmlns="http://www.w3.org/2000/svg">
<path fill-rule="evenodd" clip-rule="evenodd" d="M22.9948 0C17.5331 0.00320627 12.2507 1.9546 8.09225 5.5052C3.93378 9.0558 1.17047 13.974 0.296524 19.3803C-0.577427 24.7866 0.49497 30.3284 3.32194 35.0145C6.1489 39.7006 10.5461 43.2255 15.727 44.9587C16.8776 45.1696 17.2973 44.4592 17.2973 43.8475C17.2973 43.2999 17.2773 41.8487 17.2661 39.9236C10.8699 41.3203 9.51704 36.8321 9.51704 36.8321C8.47045 34.1654 6.95853 33.4575 6.95853 33.4575C4.86935 32.0255 7.11844 32.056 7.11844 32.056C7.84745 32.1568 8.54385 32.4234 9.15451 32.8352C9.76516 33.2471 10.2739 33.7934 10.642 34.4324C12.6936 37.9601 16.0269 36.9403 17.3373 36.3494C17.4424 35.1796 17.9604 34.0859 18.798 33.265C13.6898 32.6829 8.31934 30.705 8.31934 21.8632C8.28604 19.5712 9.13413 17.3544 10.6876 15.6728C9.98489 13.683 10.0658 11.4994 10.9138 9.5674C10.9138 9.5674 12.8439 8.94684 17.2397 11.9318C21.0098 10.8971 24.9878 10.8971 28.7579 11.9318C33.1505 8.94844 35.0742 9.5674 35.0742 9.5674C35.9233 11.4989 36.0057 13.6825 35.3044 15.6728C36.8581 17.354 37.7049 19.5714 37.6687 21.8632C37.6687 30.7259 32.2878 32.6757 27.1644 33.2482C27.9903 33.9602 28.7259 35.3697 28.7259 37.5208C28.7259 40.6052 28.6971 43.093 28.6971 43.8491C28.6971 44.4648 29.112 45.1824 30.2802 44.9579C35.4609 43.2229 39.8571 39.6962 42.6825 35.0086C45.5079 30.3211 46.5782 24.7785 45.7019 19.3722C44.8256 13.966 42.0599 9.04861 37.8994 5.49973C33.739 1.95086 28.4552 0.00195454 22.9932 0.00160264L22.9948 0Z" fill="white"/>
</svg>
