<svg width="42" height="42" viewBox="0 0 42 42" fill="none" xmlns="http://www.w3.org/2000/svg">
<path fill-rule="evenodd" clip-rule="evenodd" d="M21 42C32.598 42 42 32.598 42 21C42 9.40202 32.598 0 21 0C9.40202 0 0 9.40202 0 21C0 32.598 9.40202 42 21 42ZM26.2716 10.3704H23.8518V31.4568H26.2716V10.3704ZM19.358 8.29626H30.9382V10.3703H19.358V8.29626ZM19.358 31.4568V33.5309H30.9382V31.4568H19.358ZM20.5741 11.2496L22.642 13.1704L15.5198 20.8379L22.642 28.5055L20.5741 30.4263L13.4815 22.7906V33.5309H11.0618V8.29626H13.4815V18.8853L20.5741 11.2496Z" fill="white"/>
</svg>
