<svg width="69" height="69" viewBox="0 0 69 69" fill="none" xmlns="http://www.w3.org/2000/svg">
<path fill-rule="evenodd" clip-rule="evenodd" d="M34.1667 0C24.7282 0 17.0834 7.67322 17.0834 17.1469C17.0834 26.6205 24.7282 34.2937 34.1667 34.2937C43.6053 34.2937 51.25 26.6205 51.25 17.1469C51.25 7.67322 43.6053 0 34.1667 0ZM43.1355 17.147C43.1355 12.1743 39.1209 8.14478 34.1668 8.14478C29.2126 8.14478 25.198 12.1743 25.198 17.147C25.198 22.1196 29.2126 26.1492 34.1668 26.1492C39.1209 26.1492 43.1355 22.1196 43.1355 17.147ZM60.2188 55.7274C60.2188 52.9839 46.8511 46.7252 34.1668 46.7252C21.4824 46.7252 8.11472 52.9839 8.11472 55.7274V60.4429H60.2188V55.7274ZM6.10352e-05 55.7274C6.10352e-05 44.3248 22.7636 38.5806 34.1667 38.5806C45.5698 38.5806 68.3333 44.3248 68.3333 55.7274V68.5875H6.10352e-05V55.7274Z" fill="white"/>
</svg>
